<?xml version="1.0" ?><svg clip-rule="evenodd" fill-rule="evenodd" image-rendering="optimizeQuality" shape-rendering="geometricPrecision" text-rendering="geometricPrecision" viewBox="0 0 500 500" xmlns="http://www.w3.org/2000/svg"><defs><style type="text/css"><![CDATA[
    .str0 {stroke:#434242;stroke-width:10;stroke-linejoin:round}
    .str1 {stroke:#434242;stroke-width:20;stroke-linejoin:round}
    .fil1 {fill:none}
    .fil0 {fill:url(#id0)}
   ]]></style><radialGradient cy="48%" fx="50%" fy="48%" id="id0"><stop offset="0" stop-color="#0af"/><stop offset="1" stop-color="#008BFF"/></radialGradient></defs><g id="Layer_x0020_1"><path class="fil0 str0" d="M160 382l222-222c18 26 28 57 28 90 0 88-72 160-160 160-33 0-64-10-90-28zm180-264l-222 222c-18-26-28-57-28-90 0-88 72-160 160-160 33 0 64 10 90 28zm-90-88c122 0 220 98 220 220s-98 220-220 220-220-98-220-220 98-220 220-220z"/><path class="fil1 str1" d="M250 30c122 0 220 98 220 220s-98 220-220 220-220-98-220-220 98-220 220-220z"/></g></svg>